<?xml version="1.0" encoding="UTF-8" standalone="no"?>
<!-- Created with Inkscape (http://www.inkscape.org/) -->

<svg
   xmlns:dc="http://purl.org/dc/elements/1.1/"
   xmlns:cc="http://creativecommons.org/ns#"
   xmlns:rdf="http://www.w3.org/1999/02/22-rdf-syntax-ns#"
   xmlns:svg="http://www.w3.org/2000/svg"
   xmlns="http://www.w3.org/2000/svg"
   xmlns:sodipodi="http://sodipodi.sourceforge.net/DTD/sodipodi-0.dtd"
   xmlns:inkscape="http://www.inkscape.org/namespaces/inkscape"
   width="64px"
   height="64px"
   id="svg2986"
   version="1.1"
   inkscape:version="0.48.4 r9939"
   sodipodi:docname="OpenCV.svg">
  <defs
     id="defs2988" />
  <sodipodi:namedview
     id="base"
     pagecolor="#ffffff"
     bordercolor="#666666"
     borderopacity="1.0"
     inkscape:pageopacity="0.0"
     inkscape:pageshadow="2"
     inkscape:zoom="5.5"
     inkscape:cx="-32.59439"
     inkscape:cy="32.72772"
     inkscape:current-layer="layer1"
     showgrid="true"
     inkscape:document-units="px"
     inkscape:grid-bbox="true"
     inkscape:window-width="1920"
     inkscape:window-height="1021"
     inkscape:window-x="0"
     inkscape:window-y="27"
     inkscape:window-maximized="1" />
  <metadata
     id="metadata2991">
    <rdf:RDF>
      <cc:Work
         rdf:about="">
        <dc:format>image/svg+xml</dc:format>
        <dc:type
           rdf:resource="http://purl.org/dc/dcmitype/StillImage" />
        <dc:title />
      </cc:Work>
    </rdf:RDF>
  </metadata>
  <g
     id="layer1"
     inkscape:label="Layer 1"
     inkscape:groupmode="layer">
    <path
       style="fill:#fe0000"
       d="m 25.930997,24.111709 c -0.132043,-0.09007 -0.266473,-0.204083 -0.299332,-0.250567 -0.033,-0.04494 -0.07653,-0.07496 -0.09753,-0.06005 -0.118523,0.09007 -1.44085,-0.961767 -2.279867,-1.811437 C 20.79282,19.49761 19.489213,16.509238 19.339575,13.015806 19.195544,9.6422824 20.196164,6.6259856 22.3954,3.8076193 c 0.605117,-0.7757204 1.967749,-2.0333647 2.855891,-2.6366875 1.362078,-0.92575834 3.416896,-1.76959074 5.151272,-2.11678204 1.275505,-0.25508146 3.840346,-0.22956986 5.152637,0.044935 3.85613,0.8267412 6.962559,3.01509924 8.949891,6.30520554 0.865891,1.4328985 1.347825,2.6636881 1.718684,4.3873615 0.277425,1.2903552 0.302182,3.6763292 0.05101,4.9723752 -0.549453,2.840601 -1.828931,5.27667 -3.868117,7.364646 -0.807375,0.826742 -2.592793,2.123543 -2.726736,1.980708 -0.04351,-0.04493 -0.89875,-1.508968 -1.901747,-3.251852 -1.003177,-1.742737 -1.909161,-3.308877 -2.013274,-3.48052 l -0.18951,-0.312086 0.299932,-0.154531 c 0.396411,-0.205552 1.19208,-1.003759 1.524409,-1.529963 1.63056,-2.582812 0.872191,-5.9680499 -1.684172,-7.5175399 -1.663893,-1.0082726 -3.510965,-1.0787993 -5.291734,-0.2026127 -1.247297,0.6136746 -2.195754,1.7572883 -2.698754,3.2527546 -0.271124,0.805724 -0.241417,2.376063 0.06001,3.217334 0.430319,1.197343 1.056743,2.036072 2.014921,2.696253 l 0.503241,0.346604 -0.266623,0.453115 c -0.147035,0.249076 -1.04834,1.812948 -2.003716,3.47527 -0.955464,1.662302 -1.765463,3.054846 -1.800274,3.094592 -0.03452,0.04493 -0.171054,-0.0019 -0.302934,-0.09007 z"
       id="path3892-2"
       inkscape:connector-curvature="0"
       sodipodi:nodetypes="cccccscccccccccccccsccccccscc" />
    <path
       style="fill:#ffffff;fill-opacity:1;stroke:#000000;stroke-width:0.09535815;stroke-opacity:1"
       d="m 16.226074,64.892356 0,-5.531327 0.905818,0 0.905819,0 0,0.594387 0,0.594388 0.236434,-0.347837 c 0.499724,-0.735274 1.886306,-1.096318 3.233616,-0.842417 1.478395,0.278854 2.0525,1.335534 2.058415,3.78589 0.0039,1.764659 -0.34313,3.017429 -0.969366,3.495146 -0.478885,0.365437 -1.403781,0.575308 -2.270664,0.515132 -0.918291,-0.05874 -1.44737,-0.281789 -1.861532,-0.764639 l -0.331538,-0.387435 0,2.210665 0,2.210542 -0.953514,0 -0.953517,0 0,-5.531182 z m 4.815084,0.628129 c 0.469641,-0.308201 0.571199,-0.716194 0.571199,-2.297558 0,-2.183968 -0.204592,-2.47956 -1.715344,-2.47956 -1.510831,0 -1.715359,0.294997 -1.715359,2.47956 0,1.730628 0.09833,2.045566 0.7344,2.343357 0.51851,0.242155 1.724313,0.217202 2.125061,-0.04395 z M 8.0087905,67.081169 C 6.4811832,66.868363 5.7017864,66.322402 5.3645402,65.230193 5.0666132,64.26597 4.9415722,62.758416 5.0120166,60.981867 c 0.1042059,-2.62632 0.4329504,-3.841218 1.172193,-4.330518 1.1686691,-0.773431 5.0653864,-0.965699 6.7561334,-0.333154 1.433575,0.537151 1.788477,1.541441 1.798206,5.092509 0.0113,4.117279 -0.416952,5.102939 -2.408165,5.542047 -0.773143,0.170252 -3.4486237,0.249484 -4.3216536,0.132054 z M 11.819754,65.13451 c 0.504128,-0.21135 0.664247,-0.498994 0.782682,-1.411852 0.115933,-0.898195 0.115933,-3.545193 -0.0019,-4.449837 -0.161874,-1.24749 -0.450853,-1.439742 -2.273349,-1.513262 -1.3308423,-0.05874 -2.3592483,0.0881 -2.7181416,0.368376 -0.3978735,0.312595 -0.4866645,0.945142 -0.4878394,3.473414 -9.576e-4,3.12104 0.086585,3.395786 1.1705776,3.638968 0.8069006,0.180522 2.9987674,0.117472 3.5280504,-0.102685 z m 15.180898,1.945488 c -1.48051,-0.258316 -1.983669,-0.826273 -2.188006,-2.471776 -0.205332,-1.653141 -0.07486,-3.231714 0.337697,-4.079407 0.26197,-0.538629 0.697858,-0.865909 1.421249,-1.066969 0.620513,-0.173129 2.130696,-0.230407 2.892263,-0.117473 1.668525,0.261233 2.153766,0.928999 2.274668,3.133238 l 0.0587,1.072821 -2.589036,0 -2.58905,0 0.0076,0.500473 c 0.01026,0.698593 0.185656,1.209312 0.494589,1.43974 0.210898,0.157109 0.438233,0.202497 1.144012,0.230406 1.144013,0.04395 1.504522,-0.117472 1.638119,-0.716193 l 0.08952,-0.405075 0.887473,0 0.887472,0 0,0.309679 c -0.0019,0.93048 -0.58896,1.703624 -1.528677,2.012688 -0.617431,0.202497 -2.449833,0.289124 -3.238284,0.151153 z m 2.954414,-5.120705 c -0.0029,-0.909921 -0.443515,-1.263613 -1.57184,-1.263613 -1.313523,0 -1.680266,0.242155 -1.745769,1.147681 l -0.0411,0.567977 1.680075,0 1.680062,0 -9.57e-4,-0.453502 z m 14.91307,5.128037 c -1.489094,-0.211347 -2.142524,-0.550354 -2.478535,-1.284171 -0.370136,-0.808672 -0.537005,-2.212884 -0.550213,-4.629908 -0.01335,-2.42423 0.07632,-3.045915 0.550797,-3.841956 0.540674,-0.905527 1.566221,-1.263613 3.918897,-1.367818 2.126791,-0.08811 3.294257,0.132054 3.923942,0.764621 0.464796,0.465249 0.658081,1.034684 0.755973,2.227855 l 0.06457,0.786656 -1.061093,0 -1.061093,0 -0.0076,-0.405076 c -0.01253,-0.694177 -0.198123,-1.13887 -0.566506,-1.354613 -0.296313,-0.174565 -0.490333,-0.195103 -1.809843,-0.192228 -2.126411,0.0041 -2.373942,0.146841 -2.581522,1.475989 -0.133553,0.852684 -0.06018,4.389066 0.104205,5.076941 0.139427,0.58412 0.409028,0.789594 1.226052,0.934872 0.817028,0.146842 2.622704,0.08811 3.006296,-0.102684 0.475365,-0.233345 0.665861,-0.59293 0.70769,-1.331141 l 0.03816,-0.664829 1.03805,0 1.03805,0 -0.0019,0.453503 c -0.0039,0.808651 -0.187113,1.777001 -0.43368,2.283757 -0.285452,0.587056 -0.624034,0.823336 -1.477928,1.030269 -0.726327,0.176209 -3.478461,0.268585 -4.342623,0.146841 z m -11.479018,-3.864403 0,-3.86235 0.900238,0 0.900241,0 -0.04697,0.691262 -0.04697,0.69124 0.198432,-0.359564 c 0.434854,-0.788116 1.445315,-1.193173 2.708984,-1.087507 1.233977,0.102686 2.014093,0.695657 2.246932,1.704649 0.05137,0.226014 0.09539,1.686147 0.09685,3.246665 l 0.0019,2.837071 -0.905817,0 -0.905818,0 0,-2.720974 c 0,-3.084647 -0.02789,-3.237731 -0.623299,-3.520837 -0.276796,-0.132054 -0.510587,-0.159984 -1.005175,-0.132054 -0.813653,0.05874 -1.214459,0.281771 -1.494233,0.833605 -0.206643,0.407993 -0.214568,0.518072 -0.214568,2.977957 l 0,2.554684 -0.905816,0 -0.905818,0 0,-3.862328 z m 19.856394,-1.597651 c -0.957184,-3.002622 -1.740339,-5.49171 -1.740147,-5.530895 0,-0.04395 0.482994,-0.07332 1.072979,-0.07332 l 1.072686,0.0021 1.173661,3.59699 c 0.645459,1.978224 1.298403,4.042441 1.450892,4.587066 0.152489,0.544483 0.296313,1.009734 0.319357,1.031749 0.02347,0.02937 0.06457,-0.02937 0.09246,-0.132054 0.02789,-0.102686 0.140885,-0.496056 0.25111,-0.889386 0.110079,-0.393328 0.743794,-2.399566 1.407303,-4.458338 l 1.206535,-3.743029 1.084574,0 c 1.024695,0 1.082814,0.01027 1.054047,0.187916 -0.01622,0.102686 -0.80279,2.591097 -1.74681,5.529273 l -1.716298,5.341992 -1.620962,0.0019 -1.620946,0.0019 -1.740426,-5.45955 z"
       id="path3886"
       inkscape:connector-curvature="0" />
    <path
       style="fill:#0000fe"
       d="M 46.570287,53.132196 C 45.819327,53.057246 44.24215,52.676078 43.40459,52.373 c -3.879535,-1.404386 -7.008368,-4.593375 -8.277854,-8.436686 -0.929358,-2.81358 -0.909704,-6.019827 0.05402,-8.755238 0.730403,-2.074476 1.700167,-3.602949 3.292317,-5.190083 1.103707,-1.099817 2.59542,-2.227515 2.743196,-2.073279 0.04051,0.04493 0.959815,1.613402 2.041931,3.490115 1.08225,1.876881 1.98442,3.440018 2.004991,3.473612 0.02102,0.03003 -0.12604,0.169438 -0.32664,0.303099 -0.924406,0.613652 -1.757287,1.795396 -2.109301,2.993012 -0.191904,0.652684 -0.20301,2.111386 -0.02099,2.794243 0.389958,1.464392 1.437097,2.769759 2.734537,3.408188 1.844325,0.907743 3.734191,0.801209 5.46564,-0.307593 0.90445,-0.579155 1.556666,-1.413393 2.051279,-2.621676 0.250268,-0.612161 0.279677,-0.799719 0.283429,-1.803794 0.003,-0.708197 -0.04501,-1.264845 -0.129043,-1.511213 -0.446523,-1.299363 -1.227641,-2.377428 -2.153068,-2.971428 l -0.489883,-0.315088 0.177205,-0.258083 c 0.09753,-0.135006 1.025236,-1.733416 2.061827,-3.536476 l 1.884582,-3.278263 0.350497,0.201142 c 0.7211,0.415617 2.277061,1.67387 2.898879,2.345009 1.630471,1.760144 2.81661,4.022619 3.373609,6.435277 0.285529,1.236354 0.306685,4.19277 0.03901,5.423097 -1.022233,4.695269 -3.934601,8.230547 -8.253292,10.018131 -1.928065,0.79823 -4.405926,1.152328 -6.529539,0.931764 z"
       id="path3888-4"
       inkscape:connector-curvature="0"
       sodipodi:nodetypes="ccccscccccccccccsccccccsscc" />
    <path
       style="fill:#00fe00"
       d="M 16.434789,53.166567 C 13.160596,52.750949 10.501529,51.473191 8.2455334,49.230223 6.2958187,47.291529 5.0861826,45.035962 4.4744923,42.198218 4.2266238,41.048914 4.2284249,38.112295 4.4774453,36.968073 5.0711605,34.241522 6.3067692,31.96328 8.2454564,30.020408 10.188345,28.073315 12.580623,26.802004 15.336003,26.25241 c 1.218336,-0.243071 3.851955,-0.238577 5.046572,0.0084 1.500266,0.310595 4.142932,1.336884 4.142932,1.609057 0,0.21756 -3.9931,6.976932 -4.110852,6.957868 -0.07203,-0.01049 -0.458537,-0.135004 -0.86065,-0.285083 -0.619822,-0.223546 -0.886895,-0.262557 -1.754661,-0.262557 -1.113457,0 -1.891905,0.197994 -2.639667,0.670678 -0.210208,0.135005 -0.382306,0.213069 -0.382306,0.178467 0,-0.03003 -0.32124,0.261065 -0.713898,0.657177 -1.521783,1.535233 -2.008396,3.61015 -1.313314,5.601061 1.011131,2.89685 4.2562,4.373419 7.084889,3.223801 1.909744,-0.775722 3.325746,-2.739926 3.325746,-4.612293 l 0,-0.519149 4.151218,0 4.151318,0 -0.06301,0.754724 c -0.105022,1.270852 -0.256272,2.180107 -0.506541,3.046888 -1.052392,3.644815 -3.456568,6.614583 -6.786905,8.383733 -1.027185,0.546151 -2.5574,1.0788 -3.784004,1.317358 -0.798371,0.156 -3.207499,0.268581 -3.888795,0.181616 z"
       id="path3890-4"
       inkscape:connector-curvature="0"
       sodipodi:nodetypes="csccsccsscccssccsccccccccc" />
  </g>
</svg>
