<?xml version="1.0" encoding="UTF-8" standalone="no"?>
<!-- Created with Inkscape (http://www.inkscape.org/) -->

<svg
   xmlns:dc="http://purl.org/dc/elements/1.1/"
   xmlns:cc="http://creativecommons.org/ns#"
   xmlns:rdf="http://www.w3.org/1999/02/22-rdf-syntax-ns#"
   xmlns:svg="http://www.w3.org/2000/svg"
   xmlns="http://www.w3.org/2000/svg"
   xmlns:sodipodi="http://sodipodi.sourceforge.net/DTD/sodipodi-0.dtd"
   xmlns:inkscape="http://www.inkscape.org/namespaces/inkscape"
   id="svg2"
   version="1.1"
   inkscape:version="0.48.4 r9939"
   width="600"
   height="739"
   sodipodi:docname="OpenAccess.svg">
  <metadata
     id="metadata8">
    <rdf:RDF>
      <cc:Work
         rdf:about="">
        <dc:format>image/svg+xml</dc:format>
        <dc:type
           rdf:resource="http://purl.org/dc/dcmitype/StillImage" />
        <dc:title />
      </cc:Work>
    </rdf:RDF>
  </metadata>
  <defs
     id="defs6" />
  <sodipodi:namedview
     pagecolor="#ffffff"
     bordercolor="#666666"
     borderopacity="1"
     objecttolerance="10"
     gridtolerance="10"
     guidetolerance="10"
     inkscape:pageopacity="0"
     inkscape:pageshadow="2"
     inkscape:window-width="1920"
     inkscape:window-height="1021"
     id="namedview4"
     showgrid="false"
     inkscape:zoom="1.28"
     inkscape:cx="334.25997"
     inkscape:cy="187.45485"
     inkscape:window-x="0"
     inkscape:window-y="27"
     inkscape:window-maximized="1"
     inkscape:current-layer="svg2" />
  <path
     inkscape:connector-curvature="0"
     id="path3345"
     d="m 323.30612,494.03906 c -4.2905,-0.7134 -11.3821,-3.12692 -16.02611,-5.45424 -11.42504,-5.72558 -22.03768,-17.03953 -27.04972,-28.83734 -7.63847,-17.97987 -5.5975,-38.43067 5.46259,-54.73598 9.71778,-14.32649 25.70318,-23.523 43.63444,-25.10323 8.7801,-0.77377 21.1934,1.76498 29.31512,5.99547 1.99894,1.04122 3.83886,1.98595 4.08873,2.09939 0.62736,0.28484 0.53571,-25.93716 -0.10758,-30.78727 -3.17352,-23.92597 -31.63201,-34.55798 -49.13235,-18.35573 -6.91206,6.39932 -9.66799,12.76955 -9.66799,22.34698 l 0,5.70054 -9.69179,0 -9.69179,0 0,-4.57843 c 0,-16.7365 7.93812,-32.54099 20.78326,-41.37867 14.64284,-10.07455 33.4769,-11.62737 48.99957,-4.03988 9.90271,4.84042 17.82969,12.71731 22.57866,22.43595 4.80495,9.83324 4.73935,9.30613 4.97577,39.97863 l 0.21013,27.25817 2.37146,4.84589 c 4.86219,9.93536 6.42445,17.57045 5.91708,28.9173 -0.36956,8.2655 -1.66208,13.69529 -4.95802,20.82894 -7.62313,16.49927 -22.99347,28.76608 -40.59636,32.39925 -5.84476,1.20635 -15.67096,1.41937 -21.4151,0.46426 z m 19.89003,-19.59616 c 12.24243,-3.25426 22.70211,-13.37744 26.821,-25.95811 0.93841,-2.86614 1.23431,-5.43826 1.2666,-11.00879 0.0382,-6.6089 -0.12454,-7.73873 -1.79292,-12.44436 -1.00922,-2.84654 -2.83776,-6.68639 -4.06353,-8.53301 -4.77587,-7.19518 -12.60581,-13.24906 -20.40467,-15.77626 -5.59053,-1.81161 -15.08691,-2.18077 -20.80288,-0.80871 -12.82945,3.07961 -23.72666,13.193 -27.74627,25.75047 -1.72925,5.40237 -2.12589,14.14887 -0.90273,19.9076 2.72019,12.80722 13.39133,24.49902 26.06244,28.55522 6.01285,1.92479 15.0144,2.05668 21.56296,0.31595 z m -15.03881,-22.03274 c -6.3758,-2.27339 -10.55357,-8.18525 -10.55357,-14.93416 0,-7.03067 4.68253,-13.229 11.48859,-15.20757 10.48882,-3.04919 21.2335,6.01819 19.956,16.84078 -1.1993,10.16033 -11.43038,16.67425 -20.89102,13.30095 z M 119.23426,438.14803 c -13.51005,-3.39682 -18.07489,-22.46058 -8.09888,-33.82262 6.61785,-7.53733 20.83868,-7.22902 27.28941,0.59163 3.25263,3.94344 4.42073,8.07436 4.15384,14.68972 -0.19729,4.88897 -0.50288,6.29805 -2.03182,9.36833 -3.72589,7.48192 -12.69122,11.3406 -21.31255,9.17294 z m 10.05451,-7.45145 c 4.60202,-3.33821 6.21649,-13.65644 3.10458,-19.84153 -2.06502,-4.10436 -4.12537,-5.4907 -8.10434,-5.45321 -3.76962,0.0356 -6.38137,1.61421 -7.87385,4.75935 -3.67737,7.74943 -1.70654,18.28582 3.96019,21.17223 2.51865,1.28288 6.67649,0.98581 8.91342,-0.63684 z m 328.98056,7.48677 c -8.02087,-1.7662 -12.9715,-6.86034 -14.53515,-14.95644 -2.11814,-10.96694 4.63535,-21.64191 15.12822,-23.91262 5.27706,-1.14198 15.42715,0.0202 14.86709,1.70218 -0.13205,0.39658 -0.53226,1.86321 -0.88934,3.25918 -0.63784,2.49372 -0.68109,2.52703 -2.47026,1.90332 -1.00159,-0.34915 -3.81402,-0.53417 -6.24987,-0.41117 -7.81649,0.39472 -11.32129,4.06585 -11.7662,12.32462 -0.20141,3.73847 -0.0242,4.62909 1.49756,7.52737 1.30155,2.47887 2.39418,3.64676 4.44327,4.74934 2.45614,1.32161 3.25674,1.43581 8.32991,1.18829 5.50936,-0.26881 5.61797,-0.24754 5.90593,1.15659 0.16131,0.78674 0.42953,2.09078 0.59599,2.89787 0.25477,1.23531 -0.008,1.56328 -1.66578,2.07327 -3.35087,1.03129 -9.68416,1.27048 -13.19137,0.4982 z m 35.05163,-0.0162 c -6.54747,-1.43857 -12.2732,-6.39571 -13.94631,-12.07418 -0.41305,-1.4019 -0.75747,-4.76442 -0.76528,-7.47228 -0.0127,-4.44233 0.19195,-5.32785 2.09736,-9.06325 2.46983,-4.84187 6.22401,-8.04613 11.29633,-9.64156 3.67676,-1.15649 10.9301,-1.32489 14.5922,-0.33877 l 2.40998,0.64894 -0.91357,3.28229 c -0.86445,3.10586 -0.99244,3.25231 -2.38097,2.72439 -2.57474,-0.97892 -9.34307,-0.63251 -12.10032,0.61932 -3.99708,1.81474 -5.8963,5.21368 -6.16071,11.02557 -0.40275,8.85395 3.43792,13.32848 11.80309,13.75089 2.43585,0.12301 5.22842,-0.0551 6.20571,-0.39578 1.7232,-0.60071 1.7888,-0.55235 2.16981,1.60045 0.21607,1.22093 0.52518,2.67227 0.68691,3.2252 0.21164,0.7236 -0.26422,1.17729 -1.69806,1.61896 -3.40031,1.04741 -9.70185,1.27955 -13.29617,0.48981 z m 67.63761,0.4204 c -3.69542,-0.5326 -7.66136,-2.12431 -7.34528,-2.94798 0.16954,-0.44182 0.49143,-1.77972 0.71531,-2.9731 0.22388,-1.19338 0.59865,-2.28818 0.83277,-2.43288 0.23411,-0.1447 1.49798,0.11893 2.80856,0.58584 3.59862,1.28203 10.1032,1.16359 11.80567,-0.21497 1.69272,-1.37068 1.84181,-4.41385 0.29972,-6.11784 -0.59389,-0.65625 -2.91194,-1.89327 -5.15123,-2.74894 -7.44057,-2.84323 -10.93149,-6.50907 -10.93149,-11.47937 0,-4.46257 2.8684,-8.39915 7.57171,-10.39142 4.38487,-1.8574 17.24188,-0.8281 16.41968,1.31452 -0.16531,0.43078 -0.60488,1.9134 -0.97682,3.2947 -0.53555,1.98885 -0.88915,2.42786 -1.69933,2.10973 -2.33693,-0.91762 -7.44132,-1.41551 -9.23582,-0.90087 -2.68911,0.77124 -3.59911,1.70038 -3.59911,3.67487 0,2.32861 1.54663,3.60705 7.17493,5.93082 3.01292,1.24394 5.56068,2.79034 6.92336,4.20223 5.55939,5.76013 3.58384,14.27922 -4.10363,17.69599 -2.54189,1.12977 -8.41907,1.84401 -11.509,1.39867 z m 31.24248,-0.51627 c -2.13964,-0.47554 -4.14833,-1.12269 -4.46376,-1.43812 -0.48751,-0.48751 0.50444,-6.72883 1.06943,-6.72883 0.0915,0 1.32517,0.40887 2.74156,0.9086 3.07266,1.0841 9.01761,1.18981 11.19215,0.19902 1.73564,-0.79081 2.46204,-2.74709 1.88045,-5.06431 -0.30911,-1.23158 -1.60643,-2.10557 -6.58508,-4.43625 -3.93176,-1.84061 -6.80084,-3.61641 -7.84204,-4.8538 -4.88952,-5.81087 -2.83989,-13.26442 4.52066,-16.43951 3.57202,-1.54085 9.89028,-1.815 14.3227,-0.62148 2.79074,0.75147 2.7882,0.74495 1.76888,4.55609 -0.53737,2.00916 -0.97962,2.65745 -1.66578,2.44187 -2.82502,-0.8876 -7.25064,-1.38246 -9.05635,-1.01265 -1.195,0.24473 -2.57895,1.11151 -3.28532,2.05761 -2.04906,2.74449 -0.80577,4.27067 6.08412,7.46849 3.24103,1.50426 6.40697,3.20002 7.03544,3.76834 3.85968,3.49033 4.4875,10.25613 1.3352,14.38901 -3.38823,4.4422 -11.49161,6.48627 -19.05226,4.80592 z m -441.0235,-18.98392 0,-19.2973 3.72329,-0.38915 c 13.1463,-1.37407 20.40939,0.73945 23.04919,6.70721 2.65198,5.9952 0.32062,13.21584 -5.11702,15.84813 -3.30441,1.59964 -9.05037,2.7004 -11.401,2.18411 l -1.77414,-0.38966 0,7.31697 0,7.31697 -4.24016,0 -4.24016,0 0,-19.29728 z m 16.77201,-2.48 c 3.45276,-2.1053 3.86388,-7.52058 0.74754,-9.84726 -1.75864,-1.31303 -5.3045,-1.99953 -7.492,-1.4505 -1.52985,0.38397 -1.54723,0.45619 -1.54723,6.43416 l 0,6.04583 3.18012,-0.002 c 2.08028,-0.001 3.84806,-0.40956 5.11157,-1.17997 z m 19.57221,2.3937 0,-19.38358 11.81187,0 11.81187,0 0,3.33155 0,3.33156 -7.57171,0 -7.57172,0 0,4.24016 0,4.24015 7.26885,0 7.26884,0 0,3.33156 0,3.33155 -7.26884,0 -7.26885,0 0,4.84589 0,4.8459 7.87458,0 7.87458,0 0,3.63442 0,3.63442 -12.11473,0 -12.11474,0 0,-19.38358 z m 35.73848,-0.30287 0,-19.68645 4.78974,0 4.78974,0 4.96995,8.84072 c 2.73351,4.86239 6.1211,11.30308 7.52798,14.31264 l 2.55803,5.47193 -0.2844,-14.31264 -0.28433,-14.31265 4.01864,0 4.0187,0 0,19.68645 0,19.68645 -4.48669,0 -4.48663,0 -6.1188,-11.14215 c -3.36529,-6.12818 -6.86608,-12.73829 -7.77947,-14.68912 l -1.66075,-3.54697 -0.16222,14.68912 -0.16222,14.68912 -3.62364,0 -3.62363,0 0,-19.68645 z m 182.0366,17.11207 c 0.46623,-1.41591 2.91698,-9.38892 5.44612,-17.7178 2.52907,-8.32889 4.88127,-16.03922 5.22708,-17.13408 l 0.62876,-1.99066 5.5225,0.17345 5.5225,0.17344 5.93223,19.07842 c 3.26274,10.49313 5.93228,19.29582 5.93228,19.56155 0,0.26573 -1.96041,0.40305 -4.3564,0.30517 l -4.35634,-0.17798 -1.48896,-4.99732 -1.48896,-4.99733 -5.92356,0 -5.92356,0 -0.96282,3.31195 c -0.52954,1.82157 -1.12813,4.13852 -1.33014,5.14876 l -0.36738,1.83681 -4.43054,0 -4.43054,0 0.84773,-2.57438 z m 20.8815,-14.53768 c 0,-0.41645 -0.8198,-3.58634 -1.81721,-7.0442 -0.9974,-3.45786 -1.81345,-6.6446 -1.81345,-7.08166 0,-1.98677 -1.21856,-1.2514 -1.79668,1.08424 -0.61252,2.47492 -2.77106,10.50004 -3.42635,12.73875 -0.27615,0.9435 0.19366,1.06004 4.2736,1.06004 3.26522,0 4.58276,-0.21781 4.58009,-0.75717 z m 93.28724,-2.27152 0,-19.38358 11.81187,0 11.81187,0 0,3.33155 0,3.33156 -7.57171,0 -7.57171,0 0,4.24016 0,4.24015 7.26884,0 7.26885,0 0,3.33156 0,3.33155 -7.26885,0 -7.26884,0 0,4.84589 0,4.8459 7.87458,0 7.87458,0 0,3.63442 0,3.63442 -12.11474,0 -12.11474,0 0,-19.38358 z"
     style="fill:#f58111" />
</svg>
