<?xml version="1.0" encoding="UTF-8" standalone="no"?>
<!-- Created with Inkscape (http://www.inkscape.org/) -->

<svg
   xmlns:dc="http://purl.org/dc/elements/1.1/"
   xmlns:cc="http://creativecommons.org/ns#"
   xmlns:rdf="http://www.w3.org/1999/02/22-rdf-syntax-ns#"
   xmlns:svg="http://www.w3.org/2000/svg"
   xmlns="http://www.w3.org/2000/svg"
   xmlns:sodipodi="http://sodipodi.sourceforge.net/DTD/sodipodi-0.dtd"
   xmlns:inkscape="http://www.inkscape.org/namespaces/inkscape"
   width="64px"
   height="64px"
   id="svg3257"
   version="1.1"
   inkscape:version="0.48.4 r9939"
   sodipodi:docname="New document 4">
  <defs
     id="defs3259" />
  <sodipodi:namedview
     id="base"
     pagecolor="#ffffff"
     bordercolor="#666666"
     borderopacity="1.0"
     inkscape:pageopacity="0.0"
     inkscape:pageshadow="2"
     inkscape:zoom="3.8890873"
     inkscape:cx="23.819469"
     inkscape:cy="21.173659"
     inkscape:current-layer="layer1"
     showgrid="true"
     inkscape:document-units="px"
     inkscape:grid-bbox="true"
     inkscape:window-width="1920"
     inkscape:window-height="1021"
     inkscape:window-x="0"
     inkscape:window-y="27"
     inkscape:window-maximized="1" />
  <metadata
     id="metadata3262">
    <rdf:RDF>
      <cc:Work
         rdf:about="">
        <dc:format>image/svg+xml</dc:format>
        <dc:type
           rdf:resource="http://purl.org/dc/dcmitype/StillImage" />
        <dc:title></dc:title>
      </cc:Work>
    </rdf:RDF>
  </metadata>
  <g
     id="layer1"
     inkscape:label="Layer 1"
     inkscape:groupmode="layer">
    <g
       id="g3141"
       transform="matrix(0.82497482,0,0,0.82497482,-40.024169,-3.8670692)">
      <rect
         style="fill:#1447f2"
         y="16.640625"
         x="48.515625"
         id="rect3"
         height="65.625"
         width="155.15625" />
      <g
         transform="translate(0.23447717,-0.56356503)"
         id="g3113">
        <g
           id="g5">
          <g
             id="g7">
            <g
               id="g9">
              <g
                 id="g11">
                <g
                   id="g13">
                  <g
                     id="g15">
                    <path
                       style="fill:#ffffff"
                       inkscape:connector-curvature="0"
                       d="m 108.84,66.833 c 3.666,0 6.602,2.953 6.602,6.617 0,3.67 -2.936,6.584 -6.602,6.584 -3.664,0 -6.579,-2.914 -6.579,-6.584 0,-3.664 2.915,-6.617 6.579,-6.617 z m 0,10.815 c 2.309,0 4.215,-1.887 4.215,-4.198 0,-2.31 -1.906,-4.233 -4.215,-4.233 -2.309,0 -4.2,1.924 -4.2,4.233 0,2.313 1.891,4.198 4.2,4.198 z"
                       id="path17" />
                  </g>
                  <g
                     id="g19">
                    <path
                       style="fill:#ffffff"
                       inkscape:connector-curvature="0"
                       d="m 119.054,67.165 c 0,-0.187 0.166,-0.332 0.351,-0.332 h 0.458 l 7.624,8.104 h 0.021 v -7.571 c 0,-0.183 0.145,-0.351 0.349,-0.351 h 1.688 c 0.18,0 0.349,0.168 0.349,0.351 v 12.338 c 0,0.184 -0.169,0.33 -0.349,0.33 h -0.441 l -7.666,-8.413 h -0.015 v 7.88 c 0,0.187 -0.149,0.349 -0.35,0.349 h -1.667 c -0.184,0 -0.35,-0.162 -0.35,-0.349 V 67.165 h -0.002 z"
                       id="path21" />
                  </g>
                  <g
                     id="g23">
                    <path
                       style="fill:#ffffff"
                       inkscape:connector-curvature="0"
                       d="m 134.364,67.366 c 0,-0.183 0.143,-0.351 0.345,-0.351 h 7.465 c 0.2,0 0.349,0.168 0.349,0.351 v 1.503 c 0,0.183 -0.148,0.348 -0.349,0.348 h -5.43 v 3.008 h 4.53 c 0.184,0 0.35,0.164 0.35,0.349 v 1.521 c 0,0.2 -0.166,0.347 -0.35,0.347 h -4.53 v 3.209 h 5.43 c 0.2,0 0.349,0.166 0.349,0.348 v 1.504 c 0,0.188 -0.148,0.35 -0.349,0.35 h -7.465 c -0.202,0 -0.345,-0.162 -0.345,-0.35 V 67.366 z"
                       id="path25" />
                  </g>
                </g>
              </g>
            </g>
          </g>
        </g>
        <path
           style="fill:#ffffff"
           inkscape:connector-curvature="0"
           id="path101"
           d="m 114.03,28.016 h -9.938 c -0.994,0 -1.801,0.811 -1.801,1.803 v 27.994 c 0,0.988 0.807,1.803 1.801,1.803 h 3.891 c 0.975,0 1.799,-0.824 1.799,-1.803 v -8.945 h 4.293 c 5.746,0 10.424,-4.713 10.424,-10.508 0,-5.704 -4.695,-10.344 -10.469,-10.344 z m -4.248,7.195 h 3.91 c 1.854,0 3.361,1.393 3.361,3.105 0,1.908 -1.477,3.406 -3.361,3.406 h -3.91 v -6.511 z m 36.625,19.135 v 3.467 c 0,0.988 -0.812,1.803 -1.803,1.803 h -15.479 c -0.99,0 -1.799,-0.814 -1.799,-1.803 V 29.818 c 0,-0.992 0.809,-1.803 1.799,-1.803 h 3.891 c 0.977,0 1.799,0.826 1.799,1.803 v 22.73 h 9.789 c 0.993,10e-4 1.803,0.807 1.803,1.798 z m 16.045,-26.748 c -8.925,0 -16.182,7.293 -16.182,16.262 0,9.066 7.107,16.174 16.182,16.174 9.092,0 16.217,-7.107 16.217,-16.174 0,-8.969 -7.276,-16.262 -16.217,-16.262 z m 0,24.951 c -4.793,0 -8.691,-3.898 -8.691,-8.689 0,-4.844 3.898,-8.777 8.691,-8.777 4.731,0 8.729,4.018 8.729,8.777 0.003,4.79 -3.915,8.689 -8.729,8.689 z m 39.266,-1.883 c 0,4.541 -3.76,9.367 -10.723,9.367 -5.789,0 -9.111,-2.73 -9.992,-3.572 -0.408,-0.408 -1.146,-1.143 -0.392,-2.475 l 1.529,-2.635 c 0.568,-0.996 2.031,-1.266 2.906,-0.582 2.332,1.572 4.355,2.414 5.777,2.414 1.625,0 2.853,-0.971 2.853,-2.266 0,-1.105 -0.567,-2.457 -4.749,-4.152 -2.119,-0.859 -8.574,-3.459 -8.574,-10.053 0,-4.393 3.291,-9.115 10.513,-9.115 4.776,0 8.381,2.523 9.053,3.033 0.344,0.195 0.653,0.645 0.769,1.182 0.121,0.564 0.014,1.137 -0.291,1.574 l -1.596,2.394 c -0.67,1.01 -1.97,1.373 -2.861,0.785 -2.188,-1.385 -4.109,-2.156 -5.328,-2.156 -1.859,0 -2.724,1.172 -2.724,1.965 0,1.055 0.525,2.252 4.371,3.812 4.671,1.878 9.459,4.597 9.459,10.48 z" />
        <g
           id="g103">
          <g
             id="g105">
            <path
               style="fill:#ffffff"
               inkscape:connector-curvature="0"
               d="m 89.522,30.18 c 1.791,0.555 3.695,-0.449 4.25,-2.232 0.557,-1.799 -0.449,-3.699 -2.24,-4.254 -1.789,-0.555 -3.695,0.443 -4.254,2.24 -0.552,1.787 0.453,3.691 2.244,4.246 z"
               id="path107" />
            <path
               style="fill:#ffffff"
               inkscape:connector-curvature="0"
               d="m 97.462,47.086 c 0.277,-0.896 -0.223,-1.848 -1.117,-2.127 -0.895,-0.275 -1.844,0.227 -2.121,1.123 -0.273,0.891 0.223,1.846 1.113,2.121 0.894,0.279 1.848,-0.228 2.125,-1.117 z"
               id="path109" />
            <path
               style="fill:#ffffff"
               inkscape:connector-curvature="0"
               d="m 79.192,23.318 c 0.898,0.279 1.85,-0.227 2.127,-1.117 0.275,-0.891 -0.223,-1.846 -1.121,-2.125 -0.898,-0.279 -1.853,0.229 -2.129,1.117 -0.275,0.893 0.225,1.846 1.123,2.125 z"
               id="path111" />
            <path
               style="fill:#ffffff"
               inkscape:connector-curvature="0"
               d="m 55.749,52.766 c -0.893,-0.277 -1.852,0.225 -2.131,1.127 -0.277,0.893 0.232,1.838 1.127,2.113 0.889,0.275 1.844,-0.215 2.121,-1.109 0.28,-0.901 -0.226,-1.858 -1.117,-2.131 z"
               id="path113" />
            <path
               style="fill:#ffffff"
               inkscape:connector-curvature="0"
               d="m 85.36,60.65 c -1.164,-0.359 -2.4,0.297 -2.76,1.455 -0.359,1.162 0.289,2.402 1.453,2.763 1.158,0.36 2.396,-0.293 2.756,-1.457 0.362,-1.157 -0.29,-2.401 -1.449,-2.761 z"
               id="path115" />
            <path
               style="fill:#ffffff"
               inkscape:connector-curvature="0"
               d="m 63.122,27.336 c 0.443,-1.434 -0.363,-2.953 -1.799,-3.398 -1.428,-0.443 -2.953,0.355 -3.396,1.789 -0.443,1.432 0.359,2.959 1.789,3.4 1.435,0.445 2.961,-0.357 3.406,-1.791 z"
               id="path117" />
            <path
               style="fill:#ffffff"
               inkscape:connector-curvature="0"
               d="m 68.886,62.209 c -1.438,-0.445 -2.953,0.355 -3.396,1.792 -0.443,1.428 0.352,2.951 1.787,3.397 1.428,0.439 2.943,-0.366 3.387,-1.795 0.444,-1.434 -0.351,-2.953 -1.778,-3.394 z"
               id="path119" />
            <path
               style="fill:#ffffff"
               inkscape:connector-curvature="0"
               d="m 52.644,35.959 c -1.076,-0.334 -2.219,0.27 -2.553,1.348 -0.33,1.066 0.271,2.211 1.346,2.545 1.074,0.332 2.219,-0.271 2.549,-1.338 0.333,-1.08 -0.268,-2.223 -1.342,-2.555 z"
               id="path121" />
          </g>
          <g
             id="g123">
            <g
               id="g125">
              <path
                 style="fill:#ffffff"
                 inkscape:connector-curvature="0"
                 d="m 87.567,35.076 c -2.26,-3.594 -5.754,-6.09 -9.756,-7.105 -0.021,-0.006 -0.043,-0.02 -0.066,-0.029 l -0.004,0.014 c -1.287,-0.318 -2.621,-0.494 -3.99,-0.494 -3.062,0 -6.055,0.867 -8.654,2.504 -7.602,4.789 -9.896,14.871 -5.107,22.479 2.996,4.768 8.16,7.611 13.813,7.611 l 0,0 c 3.064,0 6.057,-0.865 8.658,-2.502 7.602,-4.788 9.893,-14.876 5.106,-22.478 z M 81.3,55.713 c -1.953,1.227 -4.166,1.922 -6.453,2.092 1.943,-1.639 3.566,-3.988 4.945,-7.148 h 0.002 c 0.449,-0.189 0.898,-0.389 1.334,-0.598 0.443,-0.219 0.871,-0.439 1.287,-0.678 0.42,-0.236 0.832,-0.479 1.221,-0.742 0.361,-0.229 0.693,-0.471 1.016,-0.709 0.08,0.281 0.154,0.57 0.213,0.84 0.068,0.348 0.119,0.686 0.152,1.014 0.031,0.318 0.043,0.627 0.033,0.932 -0.004,0.291 -0.027,0.566 -0.068,0.82 -0.043,0.266 -0.09,0.49 -0.164,0.713 -0.311,0.981 -1.983,2.497 -3.518,3.464 z M 61.907,51.391 c 0.178,0.096 0.346,0.199 0.537,0.285 0.352,0.162 0.705,0.299 1.098,0.428 0.367,0.117 0.758,0.236 1.146,0.326 0.26,0.062 0.527,0.104 0.795,0.154 0.24,1.207 0.584,2.324 1.07,3.293 -1.843,-1.098 -3.441,-2.609 -4.646,-4.486 z m 5.44,-18.854 c 0.289,0.014 0.596,0.035 0.916,0.088 0.318,0.045 0.652,0.115 0.988,0.189 0.279,0.068 0.568,0.162 0.859,0.254 -0.877,1.209 -1.693,2.617 -2.455,4.26 -1.301,2.873 -2.121,6.002 -2.441,9.305 -0.148,1.59 -0.113,3.066 0.037,4.457 -0.078,-0.021 -0.158,-0.029 -0.234,-0.051 -0.357,-0.084 -0.709,-0.188 -1.035,-0.289 -0.33,-0.111 -0.643,-0.232 -0.949,-0.375 -0.291,-0.131 -0.562,-0.271 -0.828,-0.439 -0.25,-0.145 -0.471,-0.301 -0.668,-0.463 -0.207,-0.168 -0.389,-0.342 -0.539,-0.502 -0.471,-0.481 -0.846,-1.492 -0.889,-1.707 h -0.004 c -1.236,-4.842 0.102,-10.02 3.807,-13.588 0.833,-0.801 2.075,-1.211 3.435,-1.139 z m 18.381,3.697 c 0.441,0.699 0.814,1.441 1.135,2.207 0.156,0.379 0.281,0.762 0.396,1.152 0.109,0.383 0.24,0.758 0.324,1.146 0.109,0.504 0.088,1.022 -0.082,1.508 -0.082,0.236 -0.166,0.475 -0.279,0.711 -0.113,0.242 -0.252,0.488 -0.402,0.732 -0.16,0.248 -0.336,0.5 -0.543,0.76 -0.201,0.26 -0.426,0.51 -0.646,0.752 -0.104,0.107 -0.225,0.213 -0.336,0.32 -0.08,-0.188 -0.15,-0.379 -0.238,-0.562 -0.186,-0.402 -0.389,-0.799 -0.609,-1.193 -0.221,-0.398 -0.451,-0.791 -0.695,-1.182 -0.246,-0.396 -0.51,-0.789 -0.781,-1.172 -0.209,-0.295 -0.432,-0.584 -0.656,-0.875 0.248,-3.455 -0.08,-6.332 -0.928,-8.65 1.715,1.096 3.213,2.553 4.34,4.346 z M 73.159,56.389 c -0.996,0.766 -2.051,1.148 -2.85,1.021 -0.902,-0.152 -1.799,-0.922 -2.404,-2.064 -0.42,-0.803 -0.711,-1.67 -0.918,-2.551 0.074,0.008 0.143,0.02 0.215,0.025 0.434,0.035 0.877,0.059 1.332,0.068 0.156,0.004 0.314,0.006 0.473,0.006 0.299,0 0.6,-0.006 0.898,-0.021 0.467,-0.014 0.934,-0.043 1.393,-0.09 0.477,-0.035 0.953,-0.098 1.436,-0.164 0.477,-0.066 0.951,-0.156 1.434,-0.248 0.477,-0.092 0.953,-0.199 1.43,-0.316 0.43,-0.107 0.857,-0.229 1.283,-0.357 -1.095,2.042 -2.323,3.593 -3.722,4.691 z m -6.494,-9.618 c 0.303,-3.141 1.084,-6.115 2.316,-8.836 0.789,-1.707 1.633,-3.143 2.545,-4.336 0.338,0.15 0.688,0.305 1.047,0.49 0.395,0.199 0.785,0.416 1.172,0.648 0.389,0.223 0.775,0.475 1.146,0.719 0.383,0.26 0.766,0.531 1.127,0.803 0.373,0.287 0.736,0.576 1.094,0.883 0.354,0.301 0.709,0.609 1.049,0.928 0.346,0.326 0.68,0.66 1.002,0.988 0.322,0.334 0.639,0.676 0.941,1.025 0.016,0.016 0.033,0.039 0.049,0.055 -0.006,0.084 -0.002,0.158 -0.006,0.242 -0.291,3.16 -1,6.143 -2.109,8.855 -0.096,0.232 -0.195,0.453 -0.295,0.68 -0.377,0.137 -0.754,0.264 -1.135,0.375 -0.449,0.137 -0.898,0.27 -1.352,0.379 -0.455,0.109 -0.914,0.215 -1.363,0.303 -0.455,0.088 -0.91,0.168 -1.361,0.236 -0.449,0.062 -0.896,0.119 -1.357,0.154 -0.441,0.043 -0.877,0.072 -1.324,0.086 -0.434,0.018 -0.857,0.021 -1.283,0.012 -0.424,-0.01 -0.838,-0.027 -1.248,-0.064 -0.205,-0.014 -0.4,-0.047 -0.601,-0.068 -0.212,-1.639 -0.177,-3.252 -0.054,-4.557 z m 15.391,-4.158 c 0.164,0.238 0.332,0.479 0.484,0.723 0.23,0.371 0.447,0.742 0.656,1.119 0.203,0.365 0.393,0.727 0.563,1.105 0.148,0.316 0.279,0.629 0.402,0.941 -0.088,0.066 -0.166,0.139 -0.258,0.211 -0.328,0.24 -0.674,0.49 -1.049,0.734 -0.369,0.24 -0.754,0.471 -1.145,0.69 -0.387,0.217 -0.781,0.424 -1.186,0.625 0.693,-1.945 1.208,-3.995 1.533,-6.148 z M 77.267,30.082 c 0.721,0.209 1.385,0.891 1.869,1.928 0.709,1.604 1.064,3.652 1.082,6.09 -0.014,-0.014 -0.021,-0.025 -0.033,-0.037 -0.34,-0.346 -0.688,-0.691 -1.047,-1.027 -0.355,-0.338 -0.725,-0.664 -1.1,-0.98 -0.375,-0.32 -0.76,-0.627 -1.158,-0.932 -0.385,-0.291 -0.785,-0.574 -1.191,-0.85 -0.398,-0.27 -0.811,-0.527 -1.221,-0.773 -0.416,-0.242 -0.836,-0.477 -1.25,-0.68 -0.248,-0.129 -0.49,-0.236 -0.738,-0.348 0.543,-0.58 1.107,-1.094 1.697,-1.527 v 0.004 c 1.086,-0.742 2.195,-1.055 3.01,-0.889 0.025,0.011 0.052,0.011 0.08,0.021 z m -3.903,-0.338 -0.002,-0.002 c -0.818,0.588 -1.588,1.299 -2.316,2.141 -0.098,-0.037 -0.195,-0.082 -0.293,-0.111 -0.396,-0.133 -0.787,-0.248 -1.17,-0.344 -0.379,-0.09 -0.756,-0.164 -1.105,-0.213 -0.328,-0.055 -0.641,-0.076 -0.949,-0.092 1.863,-0.924 3.899,-1.432 5.983,-1.465 -0.046,0.031 -0.099,0.047 -0.148,0.086 z m 13.073,19.895 c -0.039,-0.371 -0.094,-0.754 -0.176,-1.156 -0.078,-0.375 -0.176,-0.768 -0.293,-1.162 -0.035,-0.117 -0.082,-0.238 -0.123,-0.355 0.281,-0.252 0.553,-0.516 0.814,-0.779 0.27,-0.289 0.521,-0.57 0.736,-0.855 0.168,-0.207 0.309,-0.42 0.451,-0.631 -0.123,1.818 -0.598,3.6 -1.396,5.252 -0.008,-0.111 -0.004,-0.209 -0.013,-0.314 z"
                 id="path127" />
              <path
                 style="fill:#ffffff"
                 inkscape:connector-curvature="0"
                 d="m 70.72,45.438 c 0.935,0 1.695,-0.758 1.695,-1.695 0,-0.936 -0.762,-1.697 -1.695,-1.701 -0.938,0.004 -1.701,0.77 -1.703,1.705 0.002,0.933 0.767,1.691 1.703,1.691 z"
                 id="path129" />
            </g>
          </g>
        </g>
      </g>
    </g>
  </g>
</svg>
