<?xml version="1.0" encoding="UTF-8" standalone="no"?>
<!-- Created with Inkscape (http://www.inkscape.org/) -->

<svg
   xmlns:dc="http://purl.org/dc/elements/1.1/"
   xmlns:cc="http://creativecommons.org/ns#"
   xmlns:rdf="http://www.w3.org/1999/02/22-rdf-syntax-ns#"
   xmlns:svg="http://www.w3.org/2000/svg"
   xmlns="http://www.w3.org/2000/svg"
   xmlns:sodipodi="http://sodipodi.sourceforge.net/DTD/sodipodi-0.dtd"
   xmlns:inkscape="http://www.inkscape.org/namespaces/inkscape"
   id="svg2"
   version="1.1"
   inkscape:version="0.48.3.1 r9886"
   width="148.75"
   height="273.75"
   xml:space="preserve"
   sodipodi:docname="fig3B.eps"><metadata
     id="metadata8"><rdf:RDF><cc:Work
         rdf:about=""><dc:format>image/svg+xml</dc:format><dc:type
           rdf:resource="http://purl.org/dc/dcmitype/StillImage" /><dc:title></dc:title></cc:Work></rdf:RDF></metadata><defs
     id="defs6"><clipPath
       clipPathUnits="userSpaceOnUse"
       id="clipPath18"><path
         d="m 275.199,147.199 1908.001,0 0,972.001 -1908.001,0 0,-972.001 z"
         id="path20" /></clipPath></defs><sodipodi:namedview
     pagecolor="#ffffff"
     bordercolor="#666666"
     borderopacity="1"
     objecttolerance="10"
     gridtolerance="10"
     guidetolerance="10"
     inkscape:pageopacity="0"
     inkscape:pageshadow="2"
     inkscape:window-width="1920"
     inkscape:window-height="1023"
     id="namedview4"
     showgrid="false"
     inkscape:zoom="2.4383883"
     inkscape:cx="-14.971066"
     inkscape:cy="164.68396"
     inkscape:window-x="0"
     inkscape:window-y="27"
     inkscape:window-maximized="1"
     inkscape:current-layer="g10" /><g
     id="g10"
     inkscape:groupmode="layer"
     inkscape:label="ink_ext_XXXXXX"
     transform="matrix(0,1.25,1.25,0,0,0)"><g
       id="g12"
       transform="matrix(0,0.1,-0.1,0,169.03834,-49.55744)"><g
         id="g14"><g
           id="g16"
           clip-path="url(#clipPath18)"><path
             d="m 404.801,288.5 471.098,0 0,0 -471.098,0 z"
             style="fill:#5b00ff;fill-opacity:1;fill-rule:nonzero;stroke:none"
             id="path22"
             inkscape:connector-curvature="0" /><path
             d="m 404.801,288.5 471.097,0"
             style="fill:none;stroke:#000000;stroke-width:22.5;stroke-linecap:butt;stroke-linejoin:round;stroke-miterlimit:10;stroke-opacity:1;stroke-dasharray:none"
             id="path24"
             inkscape:connector-curvature="0" /><path
             d="m 640.301,288.5 0,0"
             style="fill:none;stroke:#000000;stroke-width:7.5;stroke-linecap:round;stroke-linejoin:round;stroke-miterlimit:10;stroke-opacity:1;stroke-dasharray:22.5, 37.5;stroke-dashoffset:0"
             id="path26"
             inkscape:connector-curvature="0" /><path
             d="m 640.301,288.5 0,0"
             style="fill:none;stroke:#000000;stroke-width:7.5;stroke-linecap:round;stroke-linejoin:round;stroke-miterlimit:10;stroke-opacity:1;stroke-dasharray:22.5, 37.5;stroke-dashoffset:0"
             id="path28"
             inkscape:connector-curvature="0" /><path
             d="m 522.5,288.5 235.602,0"
             style="fill:none;stroke:#000000;stroke-width:7.5;stroke-linecap:round;stroke-linejoin:round;stroke-miterlimit:10;stroke-opacity:1;stroke-dasharray:none"
             id="path30"
             inkscape:connector-curvature="0" /><path
             d="m 522.5,288.5 235.602,0"
             style="fill:none;stroke:#000000;stroke-width:7.5;stroke-linecap:round;stroke-linejoin:round;stroke-miterlimit:10;stroke-opacity:1;stroke-dasharray:none"
             id="path32"
             inkscape:connector-curvature="0" /><path
             d="m 404.801,288.5 471.097,0 -471.097,0 0,0"
             style="fill:none;stroke:#000000;stroke-width:7.5;stroke-linecap:round;stroke-linejoin:round;stroke-miterlimit:10;stroke-opacity:1;stroke-dasharray:none"
             id="path34"
             inkscape:connector-curvature="0" /><path
             d="m 653.801,298.102 c 0,7.453 -6.047,13.5 -13.5,13.5 -7.453,0 -13.5,-6.047 -13.5,-13.5 0,-7.454 6.047,-13.5 13.5,-13.5 7.453,0 13.5,6.046 13.5,13.5"
             style="fill:none;stroke:#000000;stroke-width:7.5;stroke-linecap:round;stroke-linejoin:round;stroke-miterlimit:10;stroke-opacity:1;stroke-dasharray:none"
             id="path36"
             inkscape:connector-curvature="0" /><path
             d="m 653.801,269.398 c 0,7.454 -6.047,13.5 -13.5,13.5 -7.453,0 -13.5,-6.046 -13.5,-13.5 0,-7.453 6.047,-13.5 13.5,-13.5 7.453,0 13.5,6.047 13.5,13.5"
             style="fill:none;stroke:#000000;stroke-width:7.5;stroke-linecap:round;stroke-linejoin:round;stroke-miterlimit:10;stroke-opacity:1;stroke-dasharray:none"
             id="path38"
             inkscape:connector-curvature="0" /><path
             d="m 653.801,259.801 c 0,7.453 -6.047,13.5 -13.5,13.5 -7.453,0 -13.5,-6.047 -13.5,-13.5 0,-7.453 6.047,-13.5 13.5,-13.5 7.453,0 13.5,6.047 13.5,13.5"
             style="fill:none;stroke:#000000;stroke-width:7.5;stroke-linecap:round;stroke-linejoin:round;stroke-miterlimit:10;stroke-opacity:1;stroke-dasharray:none"
             id="path40"
             inkscape:connector-curvature="0" /><path
             d="m 653.801,317.199 c 0,7.453 -6.047,13.5 -13.5,13.5 -7.453,0 -13.5,-6.047 -13.5,-13.5 0,-7.453 6.047,-13.5 13.5,-13.5 7.453,0 13.5,6.047 13.5,13.5"
             style="fill:none;stroke:#000000;stroke-width:7.5;stroke-linecap:round;stroke-linejoin:round;stroke-miterlimit:10;stroke-opacity:1;stroke-dasharray:none"
             id="path42"
             inkscape:connector-curvature="0" /><path
             d="m 653.801,336.398 c 0,7.454 -6.047,13.5 -13.5,13.5 -7.453,0 -13.5,-6.046 -13.5,-13.5 0,-7.453 6.047,-13.5 13.5,-13.5 7.453,0 13.5,6.047 13.5,13.5"
             style="fill:none;stroke:#000000;stroke-width:7.5;stroke-linecap:round;stroke-linejoin:round;stroke-miterlimit:10;stroke-opacity:1;stroke-dasharray:none"
             id="path44"
             inkscape:connector-curvature="0" /><path
             d="m 653.801,278.898 c 0,7.454 -6.047,13.5 -13.5,13.5 -7.453,0 -13.5,-6.046 -13.5,-13.5 0,-7.453 6.047,-13.5 13.5,-13.5 7.453,0 13.5,6.047 13.5,13.5"
             style="fill:none;stroke:#000000;stroke-width:7.5;stroke-linecap:round;stroke-linejoin:round;stroke-miterlimit:10;stroke-opacity:1;stroke-dasharray:none"
             id="path46"
             inkscape:connector-curvature="0" /><path
             d="m 993.602,326.801 471.199,0 0,52.6992 -471.199,0 0,-52.6992 z"
             style="fill:#fb0006;fill-opacity:1;fill-rule:nonzero;stroke:none"
             id="path48"
             inkscape:connector-curvature="0" /><path
             d="m 993.602,355.5 471.198,0"
             style="fill:none;stroke:#000000;stroke-width:22.5;stroke-linecap:butt;stroke-linejoin:round;stroke-miterlimit:10;stroke-opacity:1;stroke-dasharray:none"
             id="path50"
             inkscape:connector-curvature="0" /><path
             d="m 1229.2,269.398 0,57.403"
             style="fill:none;stroke:#000000;stroke-width:7.5;stroke-linecap:round;stroke-linejoin:round;stroke-miterlimit:10;stroke-opacity:1;stroke-dasharray:22.5, 37.5;stroke-dashoffset:0"
             id="path52"
             inkscape:connector-curvature="0" /><path
             d="m 1229.2,393.801 0,-14.301"
             style="fill:none;stroke:#000000;stroke-width:7.5;stroke-linecap:round;stroke-linejoin:round;stroke-miterlimit:10;stroke-opacity:1;stroke-dasharray:22.5, 37.5;stroke-dashoffset:0"
             id="path54"
             inkscape:connector-curvature="0" /><path
             d="m 1111.4,269.398 235.6,0"
             style="fill:none;stroke:#000000;stroke-width:7.5;stroke-linecap:round;stroke-linejoin:round;stroke-miterlimit:10;stroke-opacity:1;stroke-dasharray:none"
             id="path56"
             inkscape:connector-curvature="0" /><path
             d="m 1111.4,393.801 235.6,0"
             style="fill:none;stroke:#000000;stroke-width:7.5;stroke-linecap:round;stroke-linejoin:round;stroke-miterlimit:10;stroke-opacity:1;stroke-dasharray:none"
             id="path58"
             inkscape:connector-curvature="0" /><path
             d="m 993.602,326.801 471.198,0 0,52.699 -471.198,0 0,-52.699"
             style="fill:none;stroke:#000000;stroke-width:7.5;stroke-linecap:round;stroke-linejoin:round;stroke-miterlimit:10;stroke-opacity:1;stroke-dasharray:none"
             id="path60"
             inkscape:connector-curvature="0" /><path
             d="m 1242.7,480 c 0,7.453 -6.05,13.5 -13.5,13.5 -7.45,0 -13.5,-6.047 -13.5,-13.5 0,-7.453 6.05,-13.5 13.5,-13.5 7.45,0 13.5,6.047 13.5,13.5"
             style="fill:none;stroke:#000000;stroke-width:7.5;stroke-linecap:round;stroke-linejoin:round;stroke-miterlimit:10;stroke-opacity:1;stroke-dasharray:none"
             id="path62"
             inkscape:connector-curvature="0" /><path
             d="m 1242.7,460.898 c 0,7.454 -6.05,13.5 -13.5,13.5 -7.45,0 -13.5,-6.046 -13.5,-13.5 0,-7.453 6.05,-13.5 13.5,-13.5 7.45,0 13.5,6.047 13.5,13.5"
             style="fill:none;stroke:#000000;stroke-width:7.5;stroke-linecap:round;stroke-linejoin:round;stroke-miterlimit:10;stroke-opacity:1;stroke-dasharray:none"
             id="path64"
             inkscape:connector-curvature="0" /><path
             d="m 1242.7,183.199 c 0,7.453 -6.05,13.5 -13.5,13.5 -7.45,0 -13.5,-6.047 -13.5,-13.5 0,-7.453 6.05,-13.5 13.5,-13.5 7.45,0 13.5,6.047 13.5,13.5"
             style="fill:none;stroke:#000000;stroke-width:7.5;stroke-linecap:round;stroke-linejoin:round;stroke-miterlimit:10;stroke-opacity:1;stroke-dasharray:none"
             id="path66"
             inkscape:connector-curvature="0" /><path
             d="m 1242.7,489.602 c 0,7.453 -6.05,13.5 -13.5,13.5 -7.45,0 -13.5,-6.047 -13.5,-13.5 0,-7.454 6.05,-13.5 13.5,-13.5 7.45,0 13.5,6.046 13.5,13.5"
             style="fill:none;stroke:#000000;stroke-width:7.5;stroke-linecap:round;stroke-linejoin:round;stroke-miterlimit:10;stroke-opacity:1;stroke-dasharray:none"
             id="path68"
             inkscape:connector-curvature="0" /><path
             d="m 1582.5,436.898 471.102,0 0,172.402 -471.102,0 0,-172.402 z"
             style="fill:#00ff00;fill-opacity:1;fill-rule:nonzero;stroke:none"
             id="path70"
             inkscape:connector-curvature="0" /><path
             d="m 1582.5,489.602 471.1,0"
             style="fill:none;stroke:#000000;stroke-width:22.5;stroke-linecap:butt;stroke-linejoin:round;stroke-miterlimit:10;stroke-opacity:1;stroke-dasharray:none"
             id="path72"
             inkscape:connector-curvature="0" /><path
             d="m 1818.1,278.898 0,158"
             style="fill:none;stroke:#000000;stroke-width:7.5;stroke-linecap:round;stroke-linejoin:round;stroke-miterlimit:10;stroke-opacity:1;stroke-dasharray:22.5, 37.5;stroke-dashoffset:0"
             id="path74"
             inkscape:connector-curvature="0" /><path
             d="m 1818.1,805.5 0,-196.199"
             style="fill:none;stroke:#000000;stroke-width:7.5;stroke-linecap:round;stroke-linejoin:round;stroke-miterlimit:10;stroke-opacity:1;stroke-dasharray:22.5, 37.5;stroke-dashoffset:0"
             id="path76"
             inkscape:connector-curvature="0" /><path
             d="m 1700.3,278.898 235.6,0"
             style="fill:none;stroke:#000000;stroke-width:7.5;stroke-linecap:round;stroke-linejoin:round;stroke-miterlimit:10;stroke-opacity:1;stroke-dasharray:none"
             id="path78"
             inkscape:connector-curvature="0" /><path
             d="m 1700.3,805.5 235.6,0"
             style="fill:none;stroke:#000000;stroke-width:7.5;stroke-linecap:round;stroke-linejoin:round;stroke-miterlimit:10;stroke-opacity:1;stroke-dasharray:none"
             id="path80"
             inkscape:connector-curvature="0" /><path
             d="m 1582.5,436.898 471.1,0 0,172.403 -471.1,0 0,-172.403"
             style="fill:none;stroke:#000000;stroke-width:7.5;stroke-linecap:round;stroke-linejoin:round;stroke-miterlimit:10;stroke-opacity:1;stroke-dasharray:none"
             id="path82"
             inkscape:connector-curvature="0" /><path
             d="m 1831.6,1083.2 c 0,7.45 -6.05,13.5 -13.5,13.5 -7.45,0 -13.5,-6.05 -13.5,-13.5 0,-7.45 6.05,-13.5 13.5,-13.5 7.45,0 13.5,6.05 13.5,13.5"
             style="fill:none;stroke:#000000;stroke-width:7.5;stroke-linecap:round;stroke-linejoin:round;stroke-miterlimit:10;stroke-opacity:1;stroke-dasharray:none"
             id="path84"
             inkscape:connector-curvature="0" /></g></g><path
         d="m 640.301,147.199 1177.799,0"
         style="fill:none;stroke:#000000;stroke-width:7.5;stroke-linecap:round;stroke-linejoin:round;stroke-miterlimit:10;stroke-opacity:1;stroke-dasharray:none"
         id="path86"
         inkscape:connector-curvature="0" /><path
         d="m 640.301,147.199 0,-36"
         style="fill:none;stroke:#000000;stroke-width:7.5;stroke-linecap:round;stroke-linejoin:round;stroke-miterlimit:10;stroke-opacity:1;stroke-dasharray:none"
         id="path88"
         inkscape:connector-curvature="0" /><path
         d="m 1229.2,147.199 0,-36"
         style="fill:none;stroke:#000000;stroke-width:7.5;stroke-linecap:round;stroke-linejoin:round;stroke-miterlimit:10;stroke-opacity:1;stroke-dasharray:none"
         id="path90"
         inkscape:connector-curvature="0" /><path
         d="m 1818.1,147.199 0,-36"
         style="fill:none;stroke:#000000;stroke-width:7.5;stroke-linecap:round;stroke-linejoin:round;stroke-miterlimit:10;stroke-opacity:1;stroke-dasharray:none"
         id="path92"
         inkscape:connector-curvature="0" /><g
         id="g94"
         transform="scale(10,10)"><text
           transform="matrix(1,0,0,-1,50.5277,1.76016)"
           id="text96"><tspan
             style="font-size:6px;font-variant:normal;font-weight:normal;writing-mode:lr-tb;fill:#000000;fill-opacity:1;fill-rule:nonzero;stroke:none;font-family:Helvetica;-inkscape-font-specification:Helvetica"
             x="0 4.6680002 8.0039997 11.34 14.676 19.007999 22.674 65.225761 69.557762 71.225761 75.557762 126.44958 128.11758 131.11758"
             y="0"
             sodipodi:role="line"
             id="tspan98">OpenCFUNICEIJM</tspan></text>
</g><path
         d="m 275.199,288.5 0,766"
         style="fill:none;stroke:#000000;stroke-width:7.5;stroke-linecap:round;stroke-linejoin:round;stroke-miterlimit:10;stroke-opacity:1;stroke-dasharray:none"
         id="path100"
         inkscape:connector-curvature="0" /><path
         d="m 275.199,288.5 -36,0"
         style="fill:none;stroke:#000000;stroke-width:7.5;stroke-linecap:round;stroke-linejoin:round;stroke-miterlimit:10;stroke-opacity:1;stroke-dasharray:none"
         id="path102"
         inkscape:connector-curvature="0" /><path
         d="m 275.199,480 -36,0"
         style="fill:none;stroke:#000000;stroke-width:7.5;stroke-linecap:round;stroke-linejoin:round;stroke-miterlimit:10;stroke-opacity:1;stroke-dasharray:none"
         id="path104"
         inkscape:connector-curvature="0" /><path
         d="m 275.199,671.5 -36,0"
         style="fill:none;stroke:#000000;stroke-width:7.5;stroke-linecap:round;stroke-linejoin:round;stroke-miterlimit:10;stroke-opacity:1;stroke-dasharray:none"
         id="path106"
         inkscape:connector-curvature="0" /><path
         d="m 275.199,863 -36,0"
         style="fill:none;stroke:#000000;stroke-width:7.5;stroke-linecap:round;stroke-linejoin:round;stroke-miterlimit:10;stroke-opacity:1;stroke-dasharray:none"
         id="path108"
         inkscape:connector-curvature="0" /><path
         d="m 275.199,1054.5 -36,0"
         style="fill:none;stroke:#000000;stroke-width:7.5;stroke-linecap:round;stroke-linejoin:round;stroke-miterlimit:10;stroke-opacity:1;stroke-dasharray:none"
         id="path110"
         inkscape:connector-curvature="0" /><g
         id="g112"
         transform="scale(10,10)"><text
           transform="matrix(0,1,1,0,18.8801,27.182)"
           id="text114"><tspan
             style="font-size:6px;font-variant:normal;font-weight:normal;writing-mode:lr-tb;fill:#000000;fill-opacity:1;fill-rule:nonzero;stroke:none;font-family:Helvetica;-inkscape-font-specification:Helvetica"
             x="0 17.482019 20.81802 36.632038 39.96804 55.782059 59.118061 74.932083 78.268082"
             y="0"
             sodipodi:role="line"
             id="tspan116">020406080</tspan><tspan
             style="font-size:6px;font-variant:normal;font-weight:normal;writing-mode:lr-tb;fill:#000000;fill-opacity:1;fill-rule:nonzero;stroke:none;font-family:Helvetica;-inkscape-font-specification:Helvetica"
             x="3.9578099 8.2898102 11.62581 16.62381 19.95981 23.295811 25.29381 26.961809 30.29781 31.965811 33.633808 35.121872 38.457874 39.789871 42.789871 46.125874 47.793873 51.129871 54.465874 57.465874 58.797871 60.465874 61.797871 64.648048"
             y="-14.4"
             sodipodi:role="line"
             id="tspan118">Number of false positive</tspan></text>
</g><path
         d="m 275.199,147.199 1908.001,0 0,972.001 -1908.001,0 0,-972.001"
         style="fill:none;stroke:#000000;stroke-width:7.5;stroke-linecap:round;stroke-linejoin:round;stroke-miterlimit:10;stroke-opacity:1;stroke-dasharray:none"
         id="path120"
         inkscape:connector-curvature="0" /><g
         id="g122"
         transform="scale(10,10)"><text
           transform="matrix(1,0,0,-1,-0.901953,110.71)"
           id="text124"><tspan
             style="font-size:12px;font-variant:normal;font-weight:bold;writing-mode:lr-tb;fill:#000000;fill-opacity:1;fill-rule:nonzero;stroke:none;font-family:Helvetica;-inkscape-font-specification:Helvetica-Bold"
             x="0"
             y="0"
             id="tspan126">B</tspan></text>
</g></g><text
       xml:space="preserve"
       style="font-size:8.80000019px;font-style:normal;font-variant:normal;font-weight:normal;font-stretch:normal;line-height:125%;letter-spacing:0px;word-spacing:0px;fill:#000000;fill-opacity:1;stroke:none;font-family:DejaVu Sans;-inkscape-font-specification:DejaVu Sans"
       x="-178.31738"
       y="-156.16873"
       id="text3103"
       sodipodi:linespacing="125%"
       transform="scale(-1,1)"><tspan
         sodipodi:role="line"
         id="tspan3105"
         x="-178.31738"
         y="-156.16873" /></text>
<text
       xml:space="preserve"
       style="font-size:8px;font-style:normal;font-variant:normal;font-weight:normal;font-stretch:normal;line-height:125%;letter-spacing:0px;word-spacing:0px;fill:#000000;fill-opacity:1;stroke:none;font-family:Liberation Sans;-inkscape-font-specification:Liberation Sans"
       x="68.659157"
       y="118.76841"
       id="text3179-9-1"
       sodipodi:linespacing="125%"
       transform="matrix(0,1,1,0,0,0)"><tspan
         sodipodi:role="line"
         id="tspan3181-1-1"
         x="68.659157"
         y="118.76841">***</tspan></text>
<text
       xml:space="preserve"
       style="font-size:8px;font-style:normal;font-variant:normal;font-weight:normal;font-stretch:normal;line-height:125%;letter-spacing:0px;word-spacing:0px;fill:#000000;fill-opacity:1;stroke:none;font-family:Liberation Sans;-inkscape-font-specification:Liberation Sans"
       x="127.55051"
       y="90.388992"
       id="text3179-9-1-0"
       sodipodi:linespacing="125%"
       transform="matrix(0,1,1,0,0,0)"><tspan
         sodipodi:role="line"
         id="tspan3181-1-1-4"
         x="127.55051"
         y="90.388992">***</tspan></text>
</g></svg>